<svg id="visual" viewBox="0 0 4000 600" width="4000" height="600" xmlns="http://www.w3.org/2000/svg" xmlns:xlink="http://www.w3.org/1999/xlink" version="1.1"><rect x="0" y="0" width="4000" height="600" fill="#ffffff"></rect><path d="M0 436L95.2 437.7C190.3 439.3 380.7 442.7 571.2 443.2C761.7 443.7 952.3 441.3 1142.8 443.8C1333.3 446.3 1523.7 453.7 1714.2 450.8C1904.7 448 2095.3 435 2285.8 428.7C2476.3 422.3 2666.7 422.7 2857.2 428.7C3047.7 434.7 3238.3 446.3 3428.8 454C3619.3 461.7 3809.7 465.3 3904.8 467.2L4000 469L4000 601L3904.8 601C3809.7 601 3619.3 601 3428.8 601C3238.3 601 3047.7 601 2857.2 601C2666.7 601 2476.3 601 2285.8 601C2095.3 601 1904.7 601 1714.2 601C1523.7 601 1333.3 601 1142.8 601C952.3 601 761.7 601 571.2 601C380.7 601 190.3 601 95.2 601L0 601Z" fill="#ffffff"></path><path d="M0 468L95.2 470C190.3 472 380.7 476 571.2 477.2C761.7 478.3 952.3 476.7 1142.8 484.7C1333.3 492.7 1523.7 510.3 1714.2 515.8C1904.7 521.3 2095.3 514.7 2285.8 506C2476.3 497.3 2666.7 486.7 2857.2 486.3C3047.7 486 3238.3 496 3428.8 493.2C3619.3 490.3 3809.7 474.7 3904.8 466.8L4000 459L4000 601L3904.8 601C3809.7 601 3619.3 601 3428.8 601C3238.3 601 3047.7 601 2857.2 601C2666.7 601 2476.3 601 2285.8 601C2095.3 601 1904.7 601 1714.2 601C1523.7 601 1333.3 601 1142.8 601C952.3 601 761.7 601 571.2 601C380.7 601 190.3 601 95.2 601L0 601Z" fill="#ffd092"></path><path d="M0 532L95.2 536.7C190.3 541.3 380.7 550.7 571.2 551.8C761.7 553 952.3 546 1142.8 543.7C1333.3 541.3 1523.7 543.7 1714.2 541.3C1904.7 539 2095.3 532 2285.8 533.2C2476.3 534.3 2666.7 543.7 2857.2 545.2C3047.7 546.7 3238.3 540.3 3428.8 535.5C3619.3 530.7 3809.7 527.3 3904.8 525.7L4000 524L4000 601L3904.8 601C3809.7 601 3619.3 601 3428.8 601C3238.3 601 3047.7 601 2857.2 601C2666.7 601 2476.3 601 2285.8 601C2095.3 601 1904.7 601 1714.2 601C1523.7 601 1333.3 601 1142.8 601C952.3 601 761.7 601 571.2 601C380.7 601 190.3 601 95.2 601L0 601Z" fill="#fca311"></path></svg>