<svg id="visual" viewBox="0 0 960 300" width="960" height="300" xmlns="http://www.w3.org/2000/svg" xmlns:xlink="http://www.w3.org/1999/xlink" version="1.1"><rect x="0" y="0" width="960" height="300" fill="#ffffff"></rect><path d="M0 196L26.7 195.5C53.3 195 106.7 194 160 195.3C213.3 196.7 266.7 200.3 320 203.3C373.3 206.3 426.7 208.7 480 205C533.3 201.3 586.7 191.7 640 191.5C693.3 191.3 746.7 200.7 800 201.2C853.3 201.7 906.7 193.3 933.3 189.2L960 185L960 301L933.3 301C906.7 301 853.3 301 800 301C746.7 301 693.3 301 640 301C586.7 301 533.3 301 480 301C426.7 301 373.3 301 320 301C266.7 301 213.3 301 160 301C106.7 301 53.3 301 26.7 301L0 301Z" fill="#ffffff"></path><path d="M0 232L26.7 227.3C53.3 222.7 106.7 213.3 160 209.2C213.3 205 266.7 206 320 210.3C373.3 214.7 426.7 222.3 480 227.5C533.3 232.7 586.7 235.3 640 235.8C693.3 236.3 746.7 234.7 800 234.5C853.3 234.3 906.7 235.7 933.3 236.3L960 237L960 301L933.3 301C906.7 301 853.3 301 800 301C746.7 301 693.3 301 640 301C586.7 301 533.3 301 480 301C426.7 301 373.3 301 320 301C266.7 301 213.3 301 160 301C106.7 301 53.3 301 26.7 301L0 301Z" fill="#ffdfb6"></path><path d="M0 260L26.7 259.5C53.3 259 106.7 258 160 255.2C213.3 252.3 266.7 247.7 320 243.2C373.3 238.7 426.7 234.3 480 234.7C533.3 235 586.7 240 640 244.2C693.3 248.3 746.7 251.7 800 252.7C853.3 253.7 906.7 252.3 933.3 251.7L960 251L960 301L933.3 301C906.7 301 853.3 301 800 301C746.7 301 693.3 301 640 301C586.7 301 533.3 301 480 301C426.7 301 373.3 301 320 301C266.7 301 213.3 301 160 301C106.7 301 53.3 301 26.7 301L0 301Z" fill="#ffc16d"></path><path d="M0 283L26.7 281.5C53.3 280 106.7 277 160 274.8C213.3 272.7 266.7 271.3 320 272.3C373.3 273.3 426.7 276.7 480 278.3C533.3 280 586.7 280 640 280.3C693.3 280.7 746.7 281.3 800 280.7C853.3 280 906.7 278 933.3 277L960 276L960 301L933.3 301C906.7 301 853.3 301 800 301C746.7 301 693.3 301 640 301C586.7 301 533.3 301 480 301C426.7 301 373.3 301 320 301C266.7 301 213.3 301 160 301C106.7 301 53.3 301 26.7 301L0 301Z" fill="#fca311"></path></svg>