<svg id="visual" viewBox="0 0 960 540" width="960" height="540" xmlns="http://www.w3.org/2000/svg" xmlns:xlink="http://www.w3.org/1999/xlink" version="1.1"><rect x="0" y="0" width="960" height="540" fill="#ffffff"></rect><defs><linearGradient id="grad1_0" x1="43.8%" y1="0%" x2="100%" y2="100%"><stop offset="14.444444444444446%" stop-color="#fca311" stop-opacity="1"></stop><stop offset="85.55555555555554%" stop-color="#fca311" stop-opacity="1"></stop></linearGradient></defs><defs><linearGradient id="grad1_1" x1="43.8%" y1="0%" x2="100%" y2="100%"><stop offset="14.444444444444446%" stop-color="#fca311" stop-opacity="1"></stop><stop offset="85.55555555555554%" stop-color="#ffd092" stop-opacity="1"></stop></linearGradient></defs><defs><linearGradient id="grad1_2" x1="43.8%" y1="0%" x2="100%" y2="100%"><stop offset="14.444444444444446%" stop-color="#ffffff" stop-opacity="1"></stop><stop offset="85.55555555555554%" stop-color="#ffd092" stop-opacity="1"></stop></linearGradient></defs><defs><linearGradient id="grad2_0" x1="0%" y1="0%" x2="56.3%" y2="100%"><stop offset="14.444444444444446%" stop-color="#fca311" stop-opacity="1"></stop><stop offset="85.55555555555554%" stop-color="#fca311" stop-opacity="1"></stop></linearGradient></defs><defs><linearGradient id="grad2_1" x1="0%" y1="0%" x2="56.3%" y2="100%"><stop offset="14.444444444444446%" stop-color="#ffd092" stop-opacity="1"></stop><stop offset="85.55555555555554%" stop-color="#fca311" stop-opacity="1"></stop></linearGradient></defs><defs><linearGradient id="grad2_2" x1="0%" y1="0%" x2="56.3%" y2="100%"><stop offset="14.444444444444446%" stop-color="#ffd092" stop-opacity="1"></stop><stop offset="85.55555555555554%" stop-color="#ffffff" stop-opacity="1"></stop></linearGradient></defs><g transform="translate(960, 0)"><path d="M0 486C-58.8 468.9 -117.7 451.8 -178.7 431.5C-239.8 411.1 -303 387.5 -343.7 343.7C-384.3 299.8 -402.3 235.5 -422.2 174.9C-442.2 114.2 -464.1 57.1 -486 0L0 0Z" fill="#ffe7c8"></path><path d="M0 324C-39.2 312.6 -78.4 301.2 -119.1 287.6C-159.8 274.1 -202 258.4 -229.1 229.1C-256.2 199.8 -268.2 157 -281.5 116.6C-294.8 76.1 -309.4 38.1 -324 0L0 0Z" fill="#ffb95b"></path><path d="M0 162C-19.6 156.3 -39.2 150.6 -59.6 143.8C-79.9 137 -101 129.2 -114.6 114.6C-128.1 99.9 -134.1 78.5 -140.7 58.3C-147.4 38.1 -154.7 19 -162 0L0 0Z" fill="#fca311"></path></g><g transform="translate(0, 540)"><path d="M0 -486C59.5 -469.2 118.9 -452.3 178.7 -431.5C238.5 -410.6 298.6 -385.7 343.7 -343.7C388.7 -301.6 418.6 -242.3 439.8 -182.2C461 -122 473.5 -61 486 0L0 0Z" fill="#ffe7c8"></path><path d="M0 -324C39.6 -312.8 79.3 -301.5 119.1 -287.6C159 -273.7 199.1 -257.2 229.1 -229.1C259.1 -201.1 279 -161.5 293.2 -121.4C307.3 -81.3 315.7 -40.7 324 0L0 0Z" fill="#ffb95b"></path><path d="M0 -162C19.8 -156.4 39.6 -150.8 59.6 -143.8C79.5 -136.9 99.5 -128.6 114.6 -114.6C129.6 -100.5 139.5 -80.8 146.6 -60.7C153.7 -40.7 157.8 -20.3 162 0L0 0Z" fill="#fca311"></path></g></svg>