<svg id="visual" viewBox="0 0 900 600" width="900" height="600" xmlns="http://www.w3.org/2000/svg" xmlns:xlink="http://www.w3.org/1999/xlink" version="1.1"><rect x="0" y="0" width="900" height="600" fill="#ffffff"></rect><defs><linearGradient id="grad1_0" x1="33.3%" y1="0%" x2="100%" y2="100%"><stop offset="20%" stop-color="#fca311" stop-opacity="1"></stop><stop offset="80%" stop-color="#fca311" stop-opacity="1"></stop></linearGradient></defs><defs><linearGradient id="grad1_1" x1="33.3%" y1="0%" x2="100%" y2="100%"><stop offset="20%" stop-color="#fca311" stop-opacity="1"></stop><stop offset="80%" stop-color="#ffd092" stop-opacity="1"></stop></linearGradient></defs><defs><linearGradient id="grad1_2" x1="33.3%" y1="0%" x2="100%" y2="100%"><stop offset="20%" stop-color="#ffffff" stop-opacity="1"></stop><stop offset="80%" stop-color="#ffd092" stop-opacity="1"></stop></linearGradient></defs><defs><linearGradient id="grad2_0" x1="0%" y1="0%" x2="66.7%" y2="100%"><stop offset="20%" stop-color="#fca311" stop-opacity="1"></stop><stop offset="80%" stop-color="#fca311" stop-opacity="1"></stop></linearGradient></defs><defs><linearGradient id="grad2_1" x1="0%" y1="0%" x2="66.7%" y2="100%"><stop offset="20%" stop-color="#ffd092" stop-opacity="1"></stop><stop offset="80%" stop-color="#fca311" stop-opacity="1"></stop></linearGradient></defs><defs><linearGradient id="grad2_2" x1="0%" y1="0%" x2="66.7%" y2="100%"><stop offset="20%" stop-color="#ffd092" stop-opacity="1"></stop><stop offset="80%" stop-color="#ffffff" stop-opacity="1"></stop></linearGradient></defs><g transform="translate(900, 0)"><path d="M0 378.6C-46.8 363.5 -93.5 348.4 -136.2 328.9C-179 309.4 -217.7 285.5 -255.3 255.3C-292.9 225 -329.4 188.5 -349.8 144.9C-370.1 101.3 -374.4 50.6 -378.6 0L0 0Z" fill="#ffe7c8"></path><path d="M0 252.4C-31.2 242.3 -62.3 232.3 -90.8 219.3C-119.3 206.3 -145.1 190.3 -170.2 170.2C-195.2 150 -219.6 125.7 -233.2 96.6C-246.8 67.5 -249.6 33.8 -252.4 0L0 0Z" fill="#ffb95b"></path><path d="M0 126.2C-15.6 121.2 -31.2 116.1 -45.4 109.6C-59.7 103.1 -72.6 95.2 -85.1 85.1C-97.6 75 -109.8 62.8 -116.6 48.3C-123.4 33.8 -124.8 16.9 -126.2 0L0 0Z" fill="#fca311"></path></g><g transform="translate(0, 600)"><path d="M0 -378.6C42.1 -357.2 84.2 -335.9 133.2 -321.5C182.2 -307.1 238 -299.7 267.7 -267.7C297.4 -235.7 300.9 -179.2 315 -130.5C329.2 -81.8 353.9 -40.9 378.6 0L0 0Z" fill="#ffe7c8"></path><path d="M0 -252.4C28.1 -238.2 56.1 -223.9 88.8 -214.3C121.4 -204.7 158.7 -199.8 178.5 -178.5C198.3 -157.1 200.6 -119.5 210 -87C219.4 -54.5 235.9 -27.3 252.4 0L0 0Z" fill="#ffb95b"></path><path d="M0 -126.2C14 -119.1 28.1 -112 44.4 -107.2C60.7 -102.4 79.3 -99.9 89.2 -89.2C99.1 -78.6 100.3 -59.7 105 -43.5C109.7 -27.3 118 -13.6 126.2 0L0 0Z" fill="#fca311"></path></g></svg>