<svg id="visual" viewBox="0 0 900 600" width="900" height="600" xmlns="http://www.w3.org/2000/svg" xmlns:xlink="http://www.w3.org/1999/xlink" version="1.1"><rect x="0" y="0" width="900" height="600" fill="#ffffff"></rect><defs><linearGradient id="grad1_0" x1="33.3%" y1="100%" x2="100%" y2="0%"><stop offset="20%" stop-color="#fca311" stop-opacity="1"></stop><stop offset="80%" stop-color="#fca311" stop-opacity="1"></stop></linearGradient></defs><defs><linearGradient id="grad1_1" x1="33.3%" y1="100%" x2="100%" y2="0%"><stop offset="20%" stop-color="#fca311" stop-opacity="1"></stop><stop offset="80%" stop-color="#ffd092" stop-opacity="1"></stop></linearGradient></defs><defs><linearGradient id="grad1_2" x1="33.3%" y1="100%" x2="100%" y2="0%"><stop offset="20%" stop-color="#ffffff" stop-opacity="1"></stop><stop offset="80%" stop-color="#ffd092" stop-opacity="1"></stop></linearGradient></defs><defs><linearGradient id="grad2_0" x1="0%" y1="100%" x2="66.7%" y2="0%"><stop offset="20%" stop-color="#fca311" stop-opacity="1"></stop><stop offset="80%" stop-color="#fca311" stop-opacity="1"></stop></linearGradient></defs><defs><linearGradient id="grad2_1" x1="0%" y1="100%" x2="66.7%" y2="0%"><stop offset="20%" stop-color="#ffd092" stop-opacity="1"></stop><stop offset="80%" stop-color="#fca311" stop-opacity="1"></stop></linearGradient></defs><defs><linearGradient id="grad2_2" x1="0%" y1="100%" x2="66.7%" y2="0%"><stop offset="20%" stop-color="#ffd092" stop-opacity="1"></stop><stop offset="80%" stop-color="#ffffff" stop-opacity="1"></stop></linearGradient></defs><g transform="translate(900, 600)"><path d="M-378.6 0C-378.5 -42 -378.4 -83.9 -360.1 -117C-341.7 -150.1 -305 -174.3 -275.9 -200.4C-246.7 -226.6 -225.1 -254.6 -196.9 -271C-168.7 -287.4 -134 -292.2 -100.1 -308.1C-66.2 -324.1 -33.1 -351.4 0 -378.6L0 0Z" fill="#ffe7c8"></path><path d="M-252.4 0C-252.3 -28 -252.3 -55.9 -240 -78C-227.8 -100.1 -203.4 -116.2 -183.9 -133.6C-164.5 -151 -150.1 -169.7 -131.3 -180.7C-112.5 -191.6 -89.4 -194.8 -66.7 -205.4C-44.1 -216.1 -22.1 -234.2 0 -252.4L0 0Z" fill="#ffb95b"></path><path d="M-126.2 0C-126.2 -14 -126.1 -28 -120 -39C-113.9 -50 -101.7 -58.1 -92 -66.8C-82.2 -75.5 -75 -84.9 -65.6 -90.3C-56.2 -95.8 -44.7 -97.4 -33.4 -102.7C-22.1 -108 -11 -117.1 0 -126.2L0 0Z" fill="#fca311"></path></g><g transform="translate(0, 0)"><path d="M378.6 0C378.7 42.2 378.8 84.4 360.1 117C341.4 149.6 303.9 172.6 276.7 201C249.5 229.5 232.6 263.5 205.1 282.3C177.6 301.2 139.5 305.1 103.5 318.6C67.6 332.1 33.8 355.4 0 378.6L0 0Z" fill="#ffe7c8"></path><path d="M252.4 0C252.4 28.1 252.5 56.3 240 78C227.6 99.7 202.6 115 184.5 134C166.3 153 155.1 175.6 136.8 188.2C118.4 200.8 93 203.4 69 212.4C45 221.4 22.5 236.9 0 252.4L0 0Z" fill="#ffb95b"></path><path d="M126.2 0C126.2 14.1 126.3 28.1 120 39C113.8 49.9 101.3 57.5 92.2 67C83.2 76.5 77.5 87.8 68.4 94.1C59.2 100.4 46.5 101.7 34.5 106.2C22.5 110.7 11.3 118.5 0 126.2L0 0Z" fill="#fca311"></path></g></svg>