<svg id="visual" viewBox="0 0 4000 600" width="4000" height="600" xmlns="http://www.w3.org/2000/svg" xmlns:xlink="http://www.w3.org/1999/xlink" version="1.1"><rect x="0" y="0" width="4000" height="600" fill="#ffffff"></rect><path d="M0 478L95.2 469.5C190.3 461 380.7 444 571.2 446.3C761.7 448.7 952.3 470.3 1142.8 469.2C1333.3 468 1523.7 444 1714.2 439.3C1904.7 434.7 2095.3 449.3 2285.8 449.8C2476.3 450.3 2666.7 436.7 2857.2 435.2C3047.7 433.7 3238.3 444.3 3428.8 443.8C3619.3 443.3 3809.7 431.7 3904.8 425.8L4000 420L4000 601L3904.8 601C3809.7 601 3619.3 601 3428.8 601C3238.3 601 3047.7 601 2857.2 601C2666.7 601 2476.3 601 2285.8 601C2095.3 601 1904.7 601 1714.2 601C1523.7 601 1333.3 601 1142.8 601C952.3 601 761.7 601 571.2 601C380.7 601 190.3 601 95.2 601L0 601Z" fill="#ffffff"></path><path d="M0 530L95.2 522.5C190.3 515 380.7 500 571.2 497C761.7 494 952.3 503 1142.8 509.2C1333.3 515.3 1523.7 518.7 1714.2 519.5C1904.7 520.3 2095.3 518.7 2285.8 508.7C2476.3 498.7 2666.7 480.3 2857.2 471.2C3047.7 462 3238.3 462 3428.8 473C3619.3 484 3809.7 506 3904.8 517L4000 528L4000 601L3904.8 601C3809.7 601 3619.3 601 3428.8 601C3238.3 601 3047.7 601 2857.2 601C2666.7 601 2476.3 601 2285.8 601C2095.3 601 1904.7 601 1714.2 601C1523.7 601 1333.3 601 1142.8 601C952.3 601 761.7 601 571.2 601C380.7 601 190.3 601 95.2 601L0 601Z" fill="#ffd092"></path><path d="M0 553L95.2 551C190.3 549 380.7 545 571.2 546.8C761.7 548.7 952.3 556.3 1142.8 552.7C1333.3 549 1523.7 534 1714.2 532.3C1904.7 530.7 2095.3 542.3 2285.8 547C2476.3 551.7 2666.7 549.3 2857.2 545.7C3047.7 542 3238.3 537 3428.8 536.5C3619.3 536 3809.7 540 3904.8 542L4000 544L4000 601L3904.8 601C3809.7 601 3619.3 601 3428.8 601C3238.3 601 3047.7 601 2857.2 601C2666.7 601 2476.3 601 2285.8 601C2095.3 601 1904.7 601 1714.2 601C1523.7 601 1333.3 601 1142.8 601C952.3 601 761.7 601 571.2 601C380.7 601 190.3 601 95.2 601L0 601Z" fill="#fca311"></path></svg>