<svg id="visual" viewBox="0 0 960 300" width="960" height="300" xmlns="http://www.w3.org/2000/svg" xmlns:xlink="http://www.w3.org/1999/xlink" version="1.1"><rect x="0" y="0" width="960" height="300" fill="#ffffff"></rect><path d="M0 185L26.7 185.8C53.3 186.7 106.7 188.3 160 193.2C213.3 198 266.7 206 320 205.8C373.3 205.7 426.7 197.3 480 196.8C533.3 196.3 586.7 203.7 640 207.8C693.3 212 746.7 213 800 213.5C853.3 214 906.7 214 933.3 214L960 214L960 301L933.3 301C906.7 301 853.3 301 800 301C746.7 301 693.3 301 640 301C586.7 301 533.3 301 480 301C426.7 301 373.3 301 320 301C266.7 301 213.3 301 160 301C106.7 301 53.3 301 26.7 301L0 301Z" fill="#ffffff"></path><path d="M0 209L26.7 212.2C53.3 215.3 106.7 221.7 160 225.2C213.3 228.7 266.7 229.3 320 229C373.3 228.7 426.7 227.3 480 222.8C533.3 218.3 586.7 210.7 640 212.7C693.3 214.7 746.7 226.3 800 228.2C853.3 230 906.7 222 933.3 218L960 214L960 301L933.3 301C906.7 301 853.3 301 800 301C746.7 301 693.3 301 640 301C586.7 301 533.3 301 480 301C426.7 301 373.3 301 320 301C266.7 301 213.3 301 160 301C106.7 301 53.3 301 26.7 301L0 301Z" fill="#ffdfb6"></path><path d="M0 256L26.7 252.8C53.3 249.7 106.7 243.3 160 240.8C213.3 238.3 266.7 239.7 320 243.3C373.3 247 426.7 253 480 250.7C533.3 248.3 586.7 237.7 640 234.5C693.3 231.3 746.7 235.7 800 240.8C853.3 246 906.7 252 933.3 255L960 258L960 301L933.3 301C906.7 301 853.3 301 800 301C746.7 301 693.3 301 640 301C586.7 301 533.3 301 480 301C426.7 301 373.3 301 320 301C266.7 301 213.3 301 160 301C106.7 301 53.3 301 26.7 301L0 301Z" fill="#ffc16d"></path><path d="M0 275L26.7 273.7C53.3 272.3 106.7 269.7 160 269.5C213.3 269.3 266.7 271.7 320 272C373.3 272.3 426.7 270.7 480 269.7C533.3 268.7 586.7 268.3 640 268C693.3 267.7 746.7 267.3 800 268C853.3 268.7 906.7 270.3 933.3 271.2L960 272L960 301L933.3 301C906.7 301 853.3 301 800 301C746.7 301 693.3 301 640 301C586.7 301 533.3 301 480 301C426.7 301 373.3 301 320 301C266.7 301 213.3 301 160 301C106.7 301 53.3 301 26.7 301L0 301Z" fill="#fca311"></path></svg>